<svg width="112" height="33" fill="none" xmlns="http://www.w3.org/2000/svg"><path d="M25.834 2.674c.13-.747.176-1.505.31-2.251.033 9.1 0 18.21.016 27.317h-6.955V16.35c3.45-3.83 5.726-8.64 6.63-13.675zm44.23 1.841c1.9.011 3.8 0 5.699 0v2.491c2.4-.074 4.899.25 7.007 1.444 2.03 1.117 3.408 3.189 3.875 5.41.443 2.128.28 4.412-.625 6.405-.916 1.959-2.724 3.44-4.782 4.129-1.745.633-3.63.735-5.472.69v2.627H70.06v-2.63c-2.58.08-5.319-.223-7.506-1.69-1.802-1.14-3.034-3.06-3.402-5.128-.46-2.46-.198-5.161 1.211-7.294 1.002-1.602 2.653-2.742 4.46-3.31 1.68-.578 3.47-.71 5.236-.662v-2.5l.005.018zm-3.756 7.793c-1.12.793-1.611 2.175-1.665 3.488-.072 1.424.313 3.006 1.512 3.912 1.201.86 2.756.864 4.177.834v-8.98c-1.368-.025-2.836-.025-4.021.746h-.003zm9.186-.743v8.975c1.368.03 2.847.033 4.034-.74 1.187-.774 1.653-2.24 1.653-3.585.04-1.435-.42-3.011-1.647-3.892-1.186-.789-2.672-.787-4.043-.758h.003zM33.118 5.204c1.68.016 3.37 0 5.054.01 2.458 3.017 4.904 6.041 7.339 9.074 1.74-2.19 3.524-4.342 5.277-6.52.72-.84 1.365-1.745 2.12-2.553 1.68-.02 3.36 0 5.04-.01v22.516c-1.878.007-3.756 0-5.633 0V13.777c-2.263 2.758-4.54 5.493-6.797 8.252a1760.64 1760.64 0 0 0-6.741-8.249c0 4.645-.008 9.292 0 13.938-1.887.007-3.78 0-5.662 0 .004-7.503.005-15.008.003-22.514zm54.762 0c1.91.006 3.82.006 5.73 0V23.5c3.122-.005 6.243-.005 9.364 0V5.203c1.91.008 3.819 0 5.729 0v18.299c1.089-.013 2.177 0 3.267-.007.038 3.163 0 6.33.021 9.495-1.562.013-3.122 0-4.684.009v-5.28c-6.478.006-12.956.006-19.434 0 .006-7.503.008-15.008.007-22.515zM9.486 23.38a31.543 31.543 0 0 0 6.956-4.573v8.95c-2.317-.007-4.633-.007-6.95 0-.016-1.458-.006-2.918-.006-4.377zM.017 26.673a44.275 44.275 0 0 0 6.938-2.166v3.243c-2.315-.007-4.629 0-6.943 0C0 27.39 0 27.03.017 26.673z" fill="#5CB75C"/></svg>