<svg width="16" height="16" viewBox="0 0 16 16" fill="none" xmlns="http://www.w3.org/2000/svg">
<path d="M10.5006 11.1561L11.7923 9.86446C11.9663 9.69265 12.1864 9.57504 12.4259 9.5259C12.6654 9.47677 12.914 9.49823 13.1416 9.58768L14.7158 10.2162C14.9457 10.3095 15.1429 10.4689 15.2825 10.6741C15.422 10.8793 15.4977 11.1213 15.5 11.3695V14.2526C15.4987 14.4214 15.4632 14.5882 15.3957 14.743C15.3282 14.8977 15.23 15.0372 15.1072 15.153C14.9844 15.2689 14.8394 15.3586 14.6809 15.4169C14.5225 15.4753 14.3539 15.5009 14.1853 15.4923C3.1544 14.8062 0.928617 5.46479 0.507679 1.8897C0.488139 1.71413 0.505992 1.53642 0.560065 1.36826C0.614137 1.20009 0.703203 1.04528 0.821403 0.914005C0.939604 0.782732 1.08426 0.677974 1.24585 0.606621C1.40745 0.535269 1.58232 0.498939 1.75896 0.500024H4.54407C4.79261 0.500759 5.03523 0.575831 5.24075 0.715584C5.44627 0.855337 5.60528 1.05338 5.69733 1.28424L6.32585 2.85843C6.41826 3.08509 6.44183 3.33394 6.39363 3.57392C6.34543 3.81389 6.2276 4.03435 6.05484 4.20774L4.76319 5.49939C4.76319 5.49939 5.50704 10.5333 10.5006 11.1561Z" fill="#249124"/>
</svg>
