<svg width="112" height="33" viewBox="0 0 112 33" fill="none" xmlns="http://www.w3.org/2000/svg">
<path d="M25.8341 2.67437C25.9642 1.92708 26.0104 1.16877 26.1434 0.422867C26.177 9.52262 26.1434 18.6334 26.1602 27.7401H19.2051C19.2051 23.943 19.2051 20.1459 19.2051 16.3488C22.6553 12.5187 24.9313 7.70819 25.8341 2.67437Z" fill="#5CB75C"/>
<path d="M70.0645 4.51501C71.9639 4.52604 73.8633 4.51501 75.7627 4.51501C75.7627 5.34226 75.7627 6.17273 75.7627 7.00641C78.1632 6.93196 80.6617 7.25597 82.7696 8.44996C84.8006 9.56675 86.1779 11.639 86.6454 13.8602C87.0877 15.9876 86.9253 18.2722 86.0197 20.2645C85.1043 22.2237 83.2959 23.7045 81.2383 24.3938C79.4929 25.0267 77.6089 25.1287 75.7655 25.0832C75.7655 25.9587 75.7655 26.8342 75.7655 27.7111C73.8633 27.7111 71.9625 27.7111 70.0603 27.7111C70.0603 26.8342 70.0603 25.9578 70.0603 25.0818C67.4806 25.1604 64.7414 24.8585 62.5537 23.3915C60.7523 22.2513 59.5205 20.3307 59.1524 18.2625C58.6919 15.8028 58.9536 13.1019 60.3631 10.9689C61.3653 9.36683 63.0156 8.22661 64.8226 7.65994C66.5022 7.08087 68.2939 6.9485 70.0589 6.99676C70.0589 6.16262 70.0589 5.32985 70.0589 4.49709L70.0645 4.51501ZM66.3077 12.3077C65.1879 13.1005 64.6966 14.4834 64.6434 15.7959C64.5707 17.2202 64.9556 18.8016 66.1551 19.7075C67.3561 20.5678 68.9111 20.5719 70.3318 20.5416C70.3318 17.5483 70.3318 14.5551 70.3318 11.5618C68.9643 11.537 67.496 11.537 66.3105 12.3077H66.3077ZM75.4939 11.5646C75.4939 14.5565 75.4939 17.5483 75.4939 20.5402C76.8615 20.5692 78.3409 20.5733 79.5279 19.7998C80.7148 19.0264 81.1809 17.5594 81.1809 16.2151C81.2201 14.7798 80.761 13.2039 79.5335 12.3229C78.3479 11.5342 76.8615 11.5356 75.4911 11.5646H75.4939Z" fill="#5CB75C"/>
<path d="M33.118 5.20438C34.7977 5.21954 36.4871 5.20438 38.1724 5.21403C40.6302 8.23073 43.0764 11.2553 45.511 14.2876C47.2508 12.0981 49.0354 9.9459 50.7879 7.76885C51.5087 6.92781 52.1526 6.02335 52.9084 5.21541C54.5881 5.19473 56.2677 5.21541 57.9473 5.20575C57.9473 12.7108 57.9473 20.2158 57.9473 27.7208C56.0703 27.7277 54.1919 27.7208 52.3149 27.7208C52.3149 23.0725 52.3149 18.4248 52.3149 13.7775C50.0516 16.535 47.7743 19.2704 45.518 22.0293C43.2785 19.2718 41.0315 16.5221 38.777 13.7802C38.777 18.4252 38.7686 23.0716 38.777 27.718C36.8902 27.7249 34.9978 27.718 33.1152 27.718C33.119 20.2148 33.1199 12.7103 33.118 5.20438Z" fill="#5CB75C"/>
<path d="M87.88 5.20437C89.7892 5.20988 91.6994 5.20988 93.6104 5.20437C93.6104 11.304 93.6104 17.4026 93.6104 23.5004C96.7318 23.4949 99.8531 23.4949 102.974 23.5004C102.974 17.4026 102.974 11.3035 102.974 5.20299C104.884 5.21126 106.793 5.20299 108.703 5.20299C108.703 11.3026 108.703 17.4022 108.703 23.5018C109.792 23.4894 110.88 23.5018 111.97 23.4949C112.008 26.6577 111.97 29.8247 111.991 32.9903C110.429 33.0027 108.869 32.9903 107.307 32.9986C107.307 31.2393 107.307 29.4787 107.307 27.7194C100.829 27.7249 94.3509 27.7249 87.873 27.7194C87.8786 20.2162 87.881 12.7112 87.88 5.20437Z" fill="#5CB75C"/>
<path d="M9.48575 23.3804C12.0006 22.1673 14.3401 20.6293 16.4423 18.8071C16.4423 21.7907 16.4423 24.773 16.4423 27.7566C14.1253 27.7502 11.8088 27.7502 9.49275 27.7566C9.47595 26.2993 9.48575 24.8392 9.48575 23.3804Z" fill="#5CB75C"/>
<path d="M0.0165966 26.6729C2.38637 26.1418 4.70716 25.4173 6.95492 24.5069C6.95492 25.5878 6.95492 26.6688 6.95492 27.7497C4.63981 27.7428 2.32611 27.7497 0.0123975 27.7497C-0.00019982 27.3899 -0.00019982 27.03 0.0165966 26.6729Z" fill="#5CB75C"/>
</svg>
